{
    "asset" : {
        "generator" : "Khronos glTF Blender I/O v3.3.27",
        "version" : "2.0"
    },
    "extensionsUsed" : [
        "KHR_materials_specular",
        "KHR_materials_ior"
    ],
    "scene" : 1,
    "scenes" : [
        {
            "name" : "Scene",
            "nodes" : [
                0,
                1
            ]
        },
        {
            "name" : "Scene.001",
            "nodes" : [
                2
            ]
        }
    ],
    "nodes" : [
        {
            "mesh" : 0,
            "name" : "TQ_ARD-node",
            "translation" : [
                -0.2540064752101898,
                0.1024983748793602,
                0.2694694697856903
            ]
        },
        {
            "mesh" : 0,
            "name" : "TQ_ARD-node.001",
            "rotation" : [
                0,
                0.7071068286895752,
                0,
                0.7071068286895752
            ],
            "translation" : [
                0.3168350160121918,
                0.1024983748793602,
                -0.2994915544986725
            ]
        },
        {
            "mesh" : 1,
            "name" : "TQ_ARD-node.003",
            "rotation" : [
                0,
                0.7071068286895752,
                0,
                0.7071068286895752
            ],
            "translation" : [
                0.006376028060913086,
                0.1024983748793602,
                0.0005025267601013184
            ]
        }
    ],
    "materials" : [
        {
            "doubleSided" : true,
            "extensions" : {
                "KHR_materials_specular" : {
                    "specularColorFactor" : [
                        0,
                        0,
                        0
                    ]
                },
                "KHR_materials_ior" : {
                    "ior" : 0
                }
            },
            "name" : "TQ_ARD_front",
            "pbrMetallicRoughness" : {
                "baseColorTexture" : {
                    "index" : 0
                },
                "metallicFactor" : 0,
                "roughnessFactor" : 0.5
            }
        },
        {
            "doubleSided" : true,
            "extensions" : {
                "KHR_materials_specular" : {
                    "specularColorFactor" : [
                        0,
                        0,
                        0
                    ]
                },
                "KHR_materials_ior" : {
                    "ior" : 0
                }
            },
            "name" : "TQ_ARD_back",
            "pbrMetallicRoughness" : {
                "baseColorFactor" : [
                    0.996078372001648,
                    0.9019607901573181,
                    0.6627451181411743,
                    1
                ],
                "metallicFactor" : 0,
                "roughnessFactor" : 0.5
            }
        },
        {
            "doubleSided" : true,
            "extensions" : {
                "KHR_materials_specular" : {
                    "specularColorFactor" : [
                        0,
                        0,
                        0
                    ]
                },
                "KHR_materials_ior" : {
                    "ior" : 0
                }
            },
            "name" : "TQ_ARD_edge",
            "pbrMetallicRoughness" : {
                "baseColorTexture" : {
                    "index" : 1
                },
                "metallicFactor" : 0,
                "roughnessFactor" : 0.5
            }
        }
    ],
    "meshes" : [
        {
            "name" : "TQ_ARD-geom",
            "primitives" : [
                {
                    "attributes" : {
                        "POSITION" : 0,
                        "NORMAL" : 1,
                        "TEXCOORD_0" : 2
                    },
                    "indices" : 3,
                    "material" : 0
                },
                {
                    "attributes" : {
                        "POSITION" : 4,
                        "NORMAL" : 5,
                        "TEXCOORD_0" : 6
                    },
                    "indices" : 7,
                    "material" : 1
                },
                {
                    "attributes" : {
                        "POSITION" : 8,
                        "NORMAL" : 9,
                        "TEXCOORD_0" : 10
                    },
                    "indices" : 11,
                    "material" : 2
                }
            ]
        },
        {
            "name" : "TQ_ARD-geom.001",
            "primitives" : [
                {
                    "attributes" : {
                        "POSITION" : 12,
                        "NORMAL" : 13,
                        "TEXCOORD_0" : 14
                    },
                    "indices" : 3,
                    "material" : 0
                },
                {
                    "attributes" : {
                        "POSITION" : 15,
                        "NORMAL" : 16,
                        "TEXCOORD_0" : 17
                    },
                    "indices" : 7,
                    "material" : 1
                },
                {
                    "attributes" : {
                        "POSITION" : 18,
                        "NORMAL" : 19,
                        "TEXCOORD_0" : 20
                    },
                    "indices" : 11,
                    "material" : 2
                }
            ]
        }
    ],
    "textures" : [
        {
            "sampler" : 0,
            "source" : 0
        },
        {
            "sampler" : 0,
            "source" : 1
        }
    ],
    "images" : [
        {
            "bufferView" : 4,
            "mimeType" : "image/jpeg",
            "name" : "2"
        },
        {
            "bufferView" : 13,
            "mimeType" : "image/png",
            "name" : "TQ_ARD-I1"
        }
    ],
    "accessors" : [
        {
            "bufferView" : 0,
            "componentType" : 5126,
            "count" : 1881,
            "max" : [
                0.22880706191062927,
                0.24886958301067352,
                0.2344343662261963
            ],
            "min" : [
                -0.23436912894248962,
                -0.4212735593318939,
                -0.22874224185943604
            ],
            "type" : "VEC3"
        },
        {
            "bufferView" : 1,
            "componentType" : 5126,
            "count" : 1881,
            "type" : "VEC3"
        },
        {
            "bufferView" : 2,
            "componentType" : 5126,
            "count" : 1881,
            "type" : "VEC2"
        },
        {
            "bufferView" : 3,
            "componentType" : 5123,
            "count" : 3483,
            "type" : "SCALAR"
        },
        {
            "bufferView" : 5,
            "componentType" : 5126,
            "count" : 1674,
            "max" : [
                0.2267765998840332,
                0.245695099234581,
                0.2328473925590515
            ],
            "min" : [
                -0.23232737183570862,
                -0.4194536507129669,
                -0.22715505957603455
            ],
            "type" : "VEC3"
        },
        {
            "bufferView" : 6,
            "componentType" : 5126,
            "count" : 1674,
            "type" : "VEC3"
        },
        {
            "bufferView" : 7,
            "componentType" : 5126,
            "count" : 1674,
            "type" : "VEC2"
        },
        {
            "bufferView" : 8,
            "componentType" : 5123,
            "count" : 3483,
            "type" : "SCALAR"
        },
        {
            "bufferView" : 9,
            "componentType" : 5126,
            "count" : 1162,
            "max" : [
                0.22880706191062927,
                0.24886958301067352,
                0.23443424701690674
            ],
            "min" : [
                -0.23436912894248962,
                -0.4212735593318939,
                -0.22874221205711365
            ],
            "type" : "VEC3"
        },
        {
            "bufferView" : 10,
            "componentType" : 5126,
            "count" : 1162,
            "type" : "VEC3"
        },
        {
            "bufferView" : 11,
            "componentType" : 5126,
            "count" : 1162,
            "type" : "VEC2"
        },
        {
            "bufferView" : 12,
            "componentType" : 5123,
            "count" : 2442,
            "type" : "SCALAR"
        },
        {
            "bufferView" : 14,
            "componentType" : 5126,
            "count" : 1881,
            "max" : [
                0.22880706191062927,
                0.24886958301067352,
                0.2344343662261963
            ],
            "min" : [
                -0.23436912894248962,
                -0.4212735593318939,
                -0.22874224185943604
            ],
            "type" : "VEC3"
        },
        {
            "bufferView" : 15,
            "componentType" : 5126,
            "count" : 1881,
            "type" : "VEC3"
        },
        {
            "bufferView" : 16,
            "componentType" : 5126,
            "count" : 1881,
            "type" : "VEC2"
        },
        {
            "bufferView" : 17,
            "componentType" : 5126,
            "count" : 1674,
            "max" : [
                0.2267765998840332,
                0.245695099234581,
                0.2328473925590515
            ],
            "min" : [
                -0.23232737183570862,
                -0.4194536507129669,
                -0.22715505957603455
            ],
            "type" : "VEC3"
        },
        {
            "bufferView" : 18,
            "componentType" : 5126,
            "count" : 1674,
            "type" : "VEC3"
        },
        {
            "bufferView" : 19,
            "componentType" : 5126,
            "count" : 1674,
            "type" : "VEC2"
        },
        {
            "bufferView" : 20,
            "componentType" : 5126,
            "count" : 1162,
            "max" : [
                0.22880706191062927,
                0.24886958301067352,
                0.23443424701690674
            ],
            "min" : [
                -0.23436912894248962,
                -0.4212735593318939,
                -0.22874221205711365
            ],
            "type" : "VEC3"
        },
        {
            "bufferView" : 21,
            "componentType" : 5126,
            "count" : 1162,
            "type" : "VEC3"
        },
        {
            "bufferView" : 22,
            "componentType" : 5126,
            "count" : 1162,
            "type" : "VEC2"
        }
    ],
    "bufferViews" : [
        {
            "buffer" : 0,
            "byteLength" : 22572,
            "byteOffset" : 0,
            "target" : 34962
        },
        {
            "buffer" : 0,
            "byteLength" : 22572,
            "byteOffset" : 22572,
            "target" : 34962
        },
        {
            "buffer" : 0,
            "byteLength" : 15048,
            "byteOffset" : 45144,
            "target" : 34962
        },
        {
            "buffer" : 0,
            "byteLength" : 6966,
            "byteOffset" : 60192,
            "target" : 34963
        },
        {
            "buffer" : 0,
            "byteLength" : 2672083,
            "byteOffset" : 67160
        },
        {
            "buffer" : 0,
            "byteLength" : 20088,
            "byteOffset" : 2739244,
            "target" : 34962
        },
        {
            "buffer" : 0,
            "byteLength" : 20088,
            "byteOffset" : 2759332,
            "target" : 34962
        },
        {
            "buffer" : 0,
            "byteLength" : 13392,
            "byteOffset" : 2779420,
            "target" : 34962
        },
        {
            "buffer" : 0,
            "byteLength" : 6966,
            "byteOffset" : 2792812,
            "target" : 34963
        },
        {
            "buffer" : 0,
            "byteLength" : 13944,
            "byteOffset" : 2799780,
            "target" : 34962
        },
        {
            "buffer" : 0,
            "byteLength" : 13944,
            "byteOffset" : 2813724,
            "target" : 34962
        },
        {
            "buffer" : 0,
            "byteLength" : 9296,
            "byteOffset" : 2827668,
            "target" : 34962
        },
        {
            "buffer" : 0,
            "byteLength" : 4884,
            "byteOffset" : 2836964,
            "target" : 34963
        },
        {
            "buffer" : 0,
            "byteLength" : 767,
            "byteOffset" : 2841848
        },
        {
            "buffer" : 0,
            "byteLength" : 22572,
            "byteOffset" : 2842616,
            "target" : 34962
        },
        {
            "buffer" : 0,
            "byteLength" : 22572,
            "byteOffset" : 2865188,
            "target" : 34962
        },
        {
            "buffer" : 0,
            "byteLength" : 15048,
            "byteOffset" : 2887760,
            "target" : 34962
        },
        {
            "buffer" : 0,
            "byteLength" : 20088,
            "byteOffset" : 2902808,
            "target" : 34962
        },
        {
            "buffer" : 0,
            "byteLength" : 20088,
            "byteOffset" : 2922896,
            "target" : 34962
        },
        {
            "buffer" : 0,
            "byteLength" : 13392,
            "byteOffset" : 2942984,
            "target" : 34962
        },
        {
            "buffer" : 0,
            "byteLength" : 13944,
            "byteOffset" : 2956376,
            "target" : 34962
        },
        {
            "buffer" : 0,
            "byteLength" : 13944,
            "byteOffset" : 2970320,
            "target" : 34962
        },
        {
            "buffer" : 0,
            "byteLength" : 9296,
            "byteOffset" : 2984264,
            "target" : 34962
        }
    ],
    "samplers" : [
        {
            "magFilter" : 9729,
            "minFilter" : 9987
        }
    ],
    "buffers" : [
        {
            "byteLength" : 2993560,
            "uri" : "data:application/octet-stream;base64,"
        }
    ]
}
